<?xml version="1.0" encoding="UTF-8"?>
<!DOCTYPE svg PUBLIC "-//W3C//DTD SVG 1.1//EN" "http://www.w3.org/Graphics/SVG/1.1/DTD/svg11.dtd">
<svg xmlns="http://www.w3.org/2000/svg" version="1.1" width="512px" height="512px" style="shape-rendering:geometricPrecision; text-rendering:geometricPrecision; image-rendering:optimizeQuality; fill-rule:evenodd; clip-rule:evenodd" xmlns:xlink="http://www.w3.org/1999/xlink">
<g><path style="opacity:1" fill="#fefefe" d="M -0.5,-0.5 C 170.167,-0.5 340.833,-0.5 511.5,-0.5C 511.5,170.167 511.5,340.833 511.5,511.5C 340.833,511.5 170.167,511.5 -0.5,511.5C -0.5,340.833 -0.5,170.167 -0.5,-0.5 Z"/></g>
<g><path style="opacity:1" fill="#010101" d="M 228.5,42.5 C 321.118,43.8724 391.285,83.8724 439,162.5C 460.013,200.546 469.346,241.213 467,284.5C 461.491,295.352 452.658,299.518 440.5,297C 433.439,293.605 428.939,288.105 427,280.5C 424.479,197.563 386.312,137.729 312.5,101C 285.766,89.3204 257.766,83.6538 228.5,84C 216.453,78.7436 211.62,69.577 214,56.5C 215.439,53.3974 217.273,50.5641 219.5,48C 222.564,46.1412 225.564,44.3079 228.5,42.5 Z"/></g>
<g><path style="opacity:1" fill="#010101" d="M 230.5,127.5 C 295.623,129.451 342.456,159.451 371,217.5C 378.805,236.388 382.972,256.054 383.5,276.5C 381.113,292.712 371.779,299.545 355.5,297C 348.572,294.406 344.072,289.573 342,282.5C 340.085,224.936 311.585,188.103 256.5,172C 246.896,170.414 237.229,169.414 227.5,169C 213.395,161.683 209.895,150.849 217,136.5C 220.86,132.335 225.36,129.335 230.5,127.5 Z"/></g>
<g><path style="opacity:1" fill="#000000" d="M 83.5,191.5 C 88.5647,191.841 93.2314,193.341 97.5,196C 128.68,227.347 160.014,258.514 191.5,289.5C 208.986,272.514 226.319,255.347 243.5,238C 254.793,232.14 264.627,233.973 273,243.5C 277.667,251.5 277.667,259.5 273,267.5C 255.653,284.681 238.486,302.014 221.5,319.5C 252.486,350.986 283.653,382.32 315,413.5C 322.579,429.088 318.413,440.588 302.5,448C 246.312,475.625 190.312,475.292 134.5,447C 75.3498,411.924 44.6831,359.758 42.5,290.5C 42.8394,256.793 52.0061,225.793 70,197.5C 74.0572,194.215 78.5572,192.215 83.5,191.5 Z"/></g>
<g><path style="opacity:1" fill="#fcfcfc" d="M 90.5,249.5 C 91.2389,249.369 91.9056,249.536 92.5,250C 148.403,306.947 204.736,363.447 261.5,419.5C 197.863,436.789 146.363,419.122 107,366.5C 84.191,330.003 78.691,291.003 90.5,249.5 Z"/></g>
</svg>
