<?xml version="1.0" ?><svg enable-background="new 0 0 512 512" id="Layer_1" version="1.1" viewBox="0 0 512 512" xml:space="preserve" xmlns="http://www.w3.org/2000/svg" xmlns:xlink="http://www.w3.org/1999/xlink"><g><g><linearGradient gradientUnits="userSpaceOnUse" id="SVGID_1_" x1="-0.0000027" x2="512" y1="256" y2="256"><stop offset="0" style="stop-color:#B49A85"/><stop offset="0.0650802" style="stop-color:#B0957F"/><stop offset="0.2856463" style="stop-color:#A88A71"/><stop offset="0.5538635" style="stop-color:#A38369"/><stop offset="1" style="stop-color:#A18166"/></linearGradient><circle cx="256" cy="256" fill="url(#SVGID_1_)" r="256"/><linearGradient gradientUnits="userSpaceOnUse" id="SVGID_2_" x1="42.6666641" x2="469.3333435" y1="256.0005188" y2="256.0005188"><stop offset="0" style="stop-color:#A18166"/><stop offset="0.4461364" style="stop-color:#A38369"/><stop offset="0.7143537" style="stop-color:#A88A71"/><stop offset="0.9349198" style="stop-color:#B0957F"/><stop offset="1" style="stop-color:#B49A85"/></linearGradient><path d="M256,469.3338623c-117.631012,0-213.3333435-95.7018738-213.3333435-213.3333435    c0-117.6309204,95.7023239-213.333313,213.3333435-213.333313c117.6362,0,213.3333435,95.7024002,213.3333435,213.333313    C469.3333435,373.6319885,373.6362,469.3338623,256,469.3338623z" fill="url(#SVGID_2_)"/></g><path d="M264,144c-48.6342163,0-88.0608673,39.4266663-88.0608673,88.0608063   c0,32.9029388,18.0442657,61.5893402,44.7765198,76.7071991L264,384l43.3097839-75.2463989   c26.7184143-15.1210632,44.7514648-43.8010559,44.7514648-76.6927948C352.0612488,183.4266663,312.6346741,144,264,144z    M264,274.8741455c-23.9552765,0-43.3755493-19.4202728-43.3755493-43.374939   c0-23.9552002,19.4202728-43.375473,43.3755493-43.375473c23.955658,0,43.3753967,19.4202728,43.3753967,43.375473   C307.3753967,255.4538727,287.955658,274.8741455,264,274.8741455z" opacity="0.3"/><path d="M256,136c-48.634201,0-88.0608673,39.4266663-88.0608673,88.0608063   c0,32.9029388,18.0442657,61.5893402,44.7765198,76.7071991L256,376l43.3097839-75.2463989   c26.7184143-15.1210632,44.7514648-43.8010559,44.7514648-76.6927948C344.0612488,175.4266663,304.6346741,136,256,136z    M256,266.8741455c-23.9552765,0-43.3755493-19.4202728-43.3755493-43.374939   c0-23.9552002,19.4202728-43.375473,43.3755493-43.375473c23.955658,0,43.3753967,19.4202728,43.3753967,43.375473   C299.3753967,247.4538727,279.955658,266.8741455,256,266.8741455z" fill="#FFFFFF"/></g></svg>